# xmcd
#
# Track frame offsets:
#	150
#	12775
#	23500
#	34625
#	44975
#	56450
#	61287
#	74350
#	92487
#	103437
#	115537
#	131425
#	138600
#
# Disc length: 2014 seconds
#
# Revision: 0
# Processed by: cddbd v1.5.2PL0 Copyright (c) Steve Scherf et al.
# Submitted via: audiograbber 1.83.01
#
DISCID=af07dc0d
DTITLE=Percy Faith - The Oscar
DYEAR=1900
DGENRE=
TTITLE0=Main Title
TTITLE1=Laurel's Dance
TTITLE2=Kay And Frankie Dance (Song From "The Oscar")
TTITLE3=Swingin' Village
TTITLE4=Cheryl
TTITLE5=Mexican Hoedown
TTITLE6=The Glass Mountain
TTITLE7=Song From "The Oscar" (Maybe September)
TTITLE8=Tijuana Tourists
TTITLE9=Posh Party
TTITLE10=Song From "The Oscar"
TTITLE11=The Wild Drake
TTITLE12=The Glass Mountain
EXTD=
EXTT0=
EXTT1=
EXTT2=
EXTT3=
EXTT4=
EXTT5=
EXTT6=
EXTT7=
EXTT8=
EXTT9=
EXTT10=
EXTT11=
EXTT12=
PLAYORDER=
